<svg width="176" height="44" viewBox="0 0 176 44" fill="none" xmlns="http://www.w3.org/2000/svg">
<path d="M0 31.1302C0.0216644 31.1403 4.96643 33.4381 11.4618 34.735L11.456 34.7284C14.9133 35.4471 18.7339 35.7073 22.5925 35.4638L22.6546 35.458L22.6554 35.4598C34.4073 34.701 46.4912 29.2586 49.6933 17.8021L49.7134 17.7414C51.3792 28.0516 45.6347 37.8271 36.351 41.5987C28.7457 44.6885 19.4015 42.4758 13.4235 36.8556C8.7717 35.555 3.6124 33.5784 0 31.1302ZM38.2966 25.8225C43.0918 23.0088 45.5679 19.6926 46.2986 16.4045C46.785 14.2178 46.5026 12.0149 45.622 9.96692C44.7219 7.87147 43.1988 5.93885 41.2305 4.34386C35.0609 -0.656753 26.7946 -1.15403 19.671 1.89991C15.5376 3.67207 11.8507 6.66103 11.2081 10.7581C10.3928 15.9584 15.7297 20.484 23.4456 20.9932L22.1413 20.2068C21.9672 20.0939 22.424 19.6931 22.9339 19.8249L25.2813 20.3795L24.7798 18.733L25.2514 18.5421C25.4181 18.4758 25.8488 18.6561 25.988 18.746L27.8319 20.0443L30.3196 18.9959L28.8443 18.013L22.4055 15.6444L22.8142 15.1633C22.8142 15.1633 22.9053 15.023 23.3088 14.9365L35.5106 16.9147L38.8844 15.4948C39.0223 15.4343 39.5539 14.9575 40.2738 14.8034C41.0522 14.6363 41.0833 14.78 41.5515 14.8612C42.1771 14.9686 42.9547 14.8018 43.0905 15.4386C43.4107 16.9421 37.4078 19.1685 37.1763 19.2181L36.0865 24.1408C36.0157 24.5182 35.8329 24.6489 35.6083 24.7271L34.9579 24.9274L34.2926 21.804L32.7494 20.925C32.6081 20.9555 31.8311 21.2666 30.1721 21.6287C29.2197 21.9763 28.2725 22.2729 27.3375 22.5206L27.3243 23.1783C27.3323 23.3586 26.8609 23.5499 26.7497 23.4528L26.043 22.8348C16.7717 24.8759 8.86628 22.1395 7.33234 17.2126C6.80447 20.2299 6.91411 23.5008 7.72758 26.9335C9.92308 27.9134 12.1756 28.6534 14.5231 29.1684C23.3893 31.1087 32.1428 29.4328 38.2966 25.8225Z" fill="white"/>
<path d="M81.23 17.13C81.23 18.4367 80.915 19.6617 80.285 20.805C79.6783 21.9483 78.71 22.87 77.38 23.57C76.0733 24.27 74.4167 24.62 72.41 24.62H68.315V34H63.415V9.57H72.41C74.3 9.57 75.91 9.89667 77.24 10.55C78.57 11.2033 79.5617 12.1017 80.215 13.245C80.8917 14.3883 81.23 15.6833 81.23 17.13ZM72.2 20.665C73.5533 20.665 74.5567 20.3617 75.21 19.755C75.8633 19.125 76.19 18.25 76.19 17.13C76.19 14.75 74.86 13.56 72.2 13.56H68.315V20.665H72.2ZM89.6089 8.1V34H84.7089V8.1H89.6089ZM112.475 23.885C112.475 24.585 112.428 25.215 112.335 25.775H98.1602C98.2768 27.175 98.7668 28.2717 99.6302 29.065C100.493 29.8583 101.555 30.255 102.815 30.255C104.635 30.255 105.93 29.4733 106.7 27.91H111.985C111.425 29.7767 110.352 31.3167 108.765 32.53C107.178 33.72 105.23 34.315 102.92 34.315C101.053 34.315 99.3735 33.9067 97.8802 33.09C96.4102 32.25 95.2552 31.0717 94.4152 29.555C93.5985 28.0383 93.1902 26.2883 93.1902 24.305C93.1902 22.2983 93.5985 20.5367 94.4152 19.02C95.2318 17.5033 96.3752 16.3367 97.8452 15.52C99.3152 14.7033 101.007 14.295 102.92 14.295C104.763 14.295 106.408 14.6917 107.855 15.485C109.325 16.2783 110.457 17.41 111.25 18.88C112.067 20.3267 112.475 21.995 112.475 23.885ZM107.4 22.485C107.377 21.225 106.922 20.2217 106.035 19.475C105.148 18.705 104.063 18.32 102.78 18.32C101.567 18.32 100.54 18.6933 99.7002 19.44C98.8835 20.1633 98.3818 21.1783 98.1952 22.485H107.4ZM126.762 34L122.772 27.98L119.237 34H113.987L120.322 24.27L113.917 14.61H119.447L123.402 20.595L126.972 14.61H132.222L125.852 24.27L132.292 34H126.762ZM137.438 12.3C136.575 12.3 135.851 12.0317 135.268 11.495C134.708 10.935 134.428 10.2467 134.428 9.43C134.428 8.61333 134.708 7.93666 135.268 7.4C135.851 6.84 136.575 6.56 137.438 6.56C138.301 6.56 139.013 6.84 139.573 7.4C140.156 7.93666 140.448 8.61333 140.448 9.43C140.448 10.2467 140.156 10.935 139.573 11.495C139.013 12.0317 138.301 12.3 137.438 12.3ZM139.853 14.61V34H134.953V14.61H139.853ZM153.584 18.635H150.189V34H145.219V18.635H143.014V14.61H145.219V13.63C145.219 11.25 145.896 9.5 147.249 8.38C148.603 7.26 150.644 6.735 153.374 6.805V10.935C152.184 10.9117 151.356 11.11 150.889 11.53C150.423 11.95 150.189 12.7083 150.189 13.805V14.61H153.584V18.635ZM175.31 14.61L163.305 43.17H158.09L162.29 33.51L154.52 14.61H160.015L165.02 28.155L170.095 14.61H175.31Z" fill="white"/>
</svg>
